<svg xmlns="http://www.w3.org/2000/svg" viewBox="0 0 100 125">
  <path fill="currentColor" d="M7.574 64.142l7.07 7.071c3.906-3.905 10.238-3.905 14.143 0 3.905 3.906 3.905 10.237 0 14.142l7.07 7.071 39.599-39.598-28.284-28.284L7.574 64.142zM50 21.716L78.284 50l14.142-14.142-7.07-7.071c-3.906 3.905-10.237 3.905-14.143 0-3.905-3.905-3.905-10.237 0-14.142l-7.07-7.071L50 21.716zM35.15 45.05l9.237 3.934 7.69-6.806-1.083 10.098 8.662 5.038-9.921 2.32-2.32 9.922-5.039-8.662-10.098 1.083 6.806-7.69-3.933-9.237z"/>
</svg>
